<svg width="45" height="40" viewBox="0 0 45 40" fill="none" xmlns="http://www.w3.org/2000/svg">
<path d="M22.5 35C17.8125 35 13.8281 33.5417 10.5469 30.625C7.26562 27.7083 5.625 24.1667 5.625 20C5.625 15.8333 7.26562 12.2917 10.5469 9.375C13.8281 6.45833 17.8125 5 22.5 5C22.9375 5 23.3672 5.01389 23.7891 5.04167C24.2109 5.06944 24.625 5.11111 25.0312 5.16667C23.75 5.97222 22.7266 7.02083 21.9609 8.3125C21.1953 9.60417 20.8125 11 20.8125 12.5C20.8125 15 21.7969 17.125 23.7656 18.875C25.7344 20.625 28.125 21.5 30.9375 21.5C32.6562 21.5 34.2344 21.1597 35.6719 20.4792C37.1094 19.7986 38.2812 18.8889 39.1875 17.75C39.25 18.1111 39.2969 18.4792 39.3281 18.8542C39.3594 19.2292 39.375 19.6111 39.375 20C39.375 24.1667 37.7344 27.7083 34.4531 30.625C31.1719 33.5417 27.1875 35 22.5 35ZM22.5 31.6667C25.25 31.6667 27.7188 30.9931 29.9062 29.6458C32.0938 28.2986 33.6875 26.5417 34.6875 24.375C34.0625 24.5139 33.4375 24.625 32.8125 24.7083C32.1875 24.7917 31.5625 24.8333 30.9375 24.8333C27.0938 24.8333 23.8203 23.6319 21.1172 21.2292C18.4141 18.8264 17.0625 15.9167 17.0625 12.5C17.0625 11.9444 17.1094 11.3889 17.2031 10.8333C17.2969 10.2778 17.4219 9.72222 17.5781 9.16667C15.1406 10.0556 13.1641 11.4722 11.6484 13.4167C10.1328 15.3611 9.375 17.5556 9.375 20C9.375 23.2222 10.6563 25.9722 13.2188 28.25C15.7812 30.5278 18.875 31.6667 22.5 31.6667Z" fill="black"/>
</svg>
