<svg width="334" height="24" viewBox="0 0 334 24" fill="none" xmlns="http://www.w3.org/2000/svg">
<path d="M2.11904 0.546819V18.045H0.000111381V0.546819H2.11904ZM8.11056 10.1503V18.045H6.09416V4.92138H8.0422V6.97195H8.21308C8.52067 6.30551 8.98775 5.77009 9.61431 5.36567C10.2409 4.95555 11.0497 4.75049 12.0408 4.75049C12.9294 4.75049 13.7069 4.93277 14.3733 5.29731C15.0398 5.65616 15.5581 6.20298 15.9284 6.93777C16.2986 7.66687 16.4837 8.58962 16.4837 9.70605V18.045H14.4673V9.84275C14.4673 8.81177 14.1996 8.00863 13.6642 7.43333C13.1288 6.85233 12.394 6.56183 11.4598 6.56183C10.8162 6.56183 10.2409 6.70139 9.73393 6.98049C9.23267 7.2596 8.8368 7.66687 8.5463 8.20229C8.2558 8.73772 8.11056 9.38707 8.11056 10.1503ZM125.737 8.35609V10.2358H118.081V8.35609H125.737ZM141.93 18.2843C140.802 18.2843 139.797 18.0906 138.914 17.7033C138.036 17.316 137.339 16.7777 136.82 16.0885C136.308 15.3935 136.029 14.5876 135.983 13.6705H138.136C138.182 14.2344 138.375 14.7214 138.717 15.1315C139.059 15.5359 139.506 15.8492 140.059 16.0714C140.611 16.2935 141.223 16.4046 141.896 16.4046C142.647 16.4046 143.314 16.2736 143.895 16.0116C144.476 15.7495 144.931 15.385 145.262 14.9179C145.592 14.4508 145.757 13.9097 145.757 13.2945C145.757 12.6509 145.598 12.0841 145.279 11.5943C144.96 11.0987 144.493 10.7114 143.878 10.4323C143.263 10.1532 142.511 10.0136 141.622 10.0136H140.221V8.13394H141.622C142.317 8.13394 142.926 8.00863 143.451 7.758C143.98 7.50738 144.393 7.15422 144.689 6.69854C144.991 6.24286 145.142 5.70743 145.142 5.09226C145.142 4.49987 145.011 3.98438 144.749 3.54578C144.487 3.10719 144.117 2.76543 143.638 2.5205C143.166 2.27557 142.608 2.1531 141.964 2.1531C141.36 2.1531 140.79 2.26417 140.255 2.48632C139.725 2.70277 139.292 3.0189 138.956 3.43471C138.62 3.84483 138.438 4.34038 138.41 4.92138H136.359C136.393 4.00431 136.669 3.20117 137.188 2.51195C137.706 1.81703 138.384 1.27591 139.221 0.888582C140.064 0.501251 140.99 0.307585 141.998 0.307585C143.08 0.307585 144.009 0.526883 144.783 0.965478C145.558 1.39838 146.153 1.97083 146.569 2.68283C146.985 3.39484 147.193 4.1638 147.193 4.98973C147.193 5.97514 146.934 6.81531 146.415 7.51022C145.903 8.20514 145.205 8.68646 144.322 8.95417V9.09087C145.427 9.27315 146.29 9.74307 146.911 10.5006C147.532 11.2525 147.842 12.1838 147.842 13.2945C147.842 14.2458 147.583 15.1002 147.065 15.8578C146.552 16.6096 145.851 17.202 144.963 17.6349C144.074 18.0678 143.063 18.2843 141.93 18.2843ZM163.093 18.3185C162 18.3185 161.034 18.0422 160.197 17.4897C159.36 16.9315 158.705 16.1454 158.232 15.1315C157.759 14.1119 157.523 12.9072 157.523 11.5174C157.523 10.1389 157.759 8.94278 158.232 7.92888C158.705 6.91499 159.362 6.13178 160.205 5.57927C161.048 5.02675 162.022 4.75049 163.127 4.75049C163.982 4.75049 164.657 4.8929 165.152 5.1777C165.654 5.4568 166.035 5.77578 166.297 6.13463C166.565 6.48779 166.773 6.77828 166.921 7.00612H167.092V0.546819H169.108V18.045H167.16V16.0286H166.921C166.773 16.2679 166.562 16.5698 166.289 16.9343C166.015 17.2932 165.625 17.615 165.118 17.8998C164.611 18.1789 163.936 18.3185 163.093 18.3185ZM163.367 16.5071C164.176 16.5071 164.859 16.2964 165.417 15.8749C165.976 15.4477 166.4 14.8581 166.69 14.1062C166.981 13.3487 167.126 12.4743 167.126 11.4832C167.126 10.5035 166.984 9.64624 166.699 8.91145C166.414 8.17096 165.993 7.59567 165.434 7.18555C164.876 6.76974 164.187 6.56183 163.367 6.56183C162.512 6.56183 161.8 6.78113 161.231 7.21973C160.667 7.65263 160.242 8.24217 159.958 8.98835C159.679 9.72883 159.539 10.5605 159.539 11.4832C159.539 12.4174 159.681 13.2661 159.966 14.0293C160.257 14.7869 160.684 15.3907 161.248 15.8407C161.817 16.285 162.524 16.5071 163.367 16.5071ZM176.943 18.3526C176.112 18.3526 175.357 18.196 174.679 17.8827C174.001 17.5637 173.463 17.1052 173.064 16.5071C172.665 15.9033 172.466 15.1742 172.466 14.3198C172.466 13.568 172.614 12.9585 172.91 12.4914C173.207 12.0186 173.602 11.6484 174.098 11.3807C174.594 11.113 175.14 10.9136 175.739 10.7826C176.342 10.6459 176.949 10.5377 177.558 10.4579C178.356 10.3554 179.002 10.2785 179.498 10.2272C179.999 10.1703 180.364 10.0763 180.592 9.94528C180.825 9.81427 180.942 9.58643 180.942 9.26176V9.1934C180.942 8.35039 180.711 7.69535 180.25 7.22827C179.794 6.7612 179.102 6.52766 178.174 6.52766C177.211 6.52766 176.456 6.73841 175.909 7.15992C175.363 7.58142 174.978 8.03141 174.756 8.50988L172.842 7.82635C173.184 7.02891 173.64 6.40804 174.209 5.96375C174.784 5.51376 175.411 5.20048 176.089 5.0239C176.772 4.84163 177.444 4.75049 178.105 4.75049C178.527 4.75049 179.011 4.80176 179.558 4.90429C180.11 5.00112 180.643 5.20333 181.155 5.51091C181.674 5.8185 182.104 6.28273 182.446 6.9036C182.787 7.52446 182.958 8.35609 182.958 9.39846V18.045H180.942V16.2679H180.839C180.703 16.5527 180.475 16.8574 180.156 17.1821C179.837 17.5068 179.412 17.783 178.883 18.0109C178.353 18.2387 177.706 18.3526 176.943 18.3526ZM177.251 16.5413C178.048 16.5413 178.72 16.3846 179.267 16.0714C179.82 15.7581 180.236 15.3537 180.515 14.8581C180.799 14.3626 180.942 13.8414 180.942 13.2945V11.449C180.856 11.5516 180.668 11.6455 180.378 11.731C180.093 11.8107 179.763 11.8819 179.387 11.9446C179.017 12.0015 178.655 12.0528 178.302 12.0984C177.954 12.1383 177.672 12.1724 177.456 12.2009C176.932 12.2693 176.442 12.3803 175.986 12.5341C175.536 12.6822 175.172 12.9072 174.893 13.2091C174.619 13.5053 174.483 13.9097 174.483 14.4224C174.483 15.123 174.742 15.6527 175.26 16.0116C175.784 16.3647 176.448 16.5413 177.251 16.5413ZM187.467 22.9664C187.126 22.9664 186.821 22.9379 186.553 22.881C186.285 22.8297 186.1 22.7785 185.998 22.7272L186.51 20.95C187 21.0753 187.433 21.1209 187.809 21.0867C188.185 21.0526 188.518 20.8845 188.809 20.5826C189.105 20.2864 189.376 19.8051 189.62 19.1387L189.996 18.1134L185.143 4.92138H187.331L190.953 15.3793H191.09L194.713 4.92138H196.9L191.329 19.9589C191.079 20.6367 190.768 21.1978 190.398 21.6421C190.028 22.0921 189.598 22.4253 189.108 22.6417C188.624 22.8582 188.077 22.9664 187.467 22.9664ZM208.857 7.86053L207.046 8.37317C206.932 8.07128 206.764 7.77794 206.542 7.49314C206.326 7.20264 206.029 6.9634 205.653 6.77544C205.277 6.58747 204.796 6.49348 204.209 6.49348C203.406 6.49348 202.737 6.6786 202.202 7.04885C201.672 7.41339 201.407 7.87762 201.407 8.44153C201.407 8.94278 201.589 9.33865 201.954 9.62915C202.318 9.91965 202.888 10.1617 203.663 10.3554L205.611 10.8339C206.784 11.1187 207.658 11.5544 208.234 12.1411C208.809 12.7221 209.097 13.4711 209.097 14.3882C209.097 15.1401 208.88 15.8122 208.447 16.4046C208.02 16.997 207.422 17.464 206.653 17.8058C205.884 18.1476 204.99 18.3185 203.97 18.3185C202.632 18.3185 201.524 18.028 200.647 17.447C199.769 16.866 199.214 16.0173 198.98 14.9008L200.894 14.4224C201.077 15.1287 201.421 15.6584 201.928 16.0116C202.441 16.3647 203.11 16.5413 203.936 16.5413C204.876 16.5413 205.622 16.3419 206.175 15.9432C206.733 15.5388 207.012 15.0546 207.012 14.4907C207.012 14.035 206.852 13.6534 206.533 13.3458C206.214 13.0325 205.725 12.799 205.064 12.6452L202.877 12.1326C201.675 11.8478 200.792 11.4063 200.228 10.8082C199.67 10.2044 199.391 9.44972 199.391 8.54405C199.391 7.80357 199.598 7.14853 200.014 6.57892C200.436 6.00932 201.008 5.56218 201.732 5.23751C202.461 4.91283 203.287 4.75049 204.209 4.75049C205.508 4.75049 206.528 5.0353 207.268 5.6049C208.014 6.1745 208.544 6.92638 208.857 7.86053ZM222.761 18.3526C221.929 18.3526 221.174 18.196 220.497 17.8827C219.819 17.5637 219.28 17.1052 218.882 16.5071C218.483 15.9033 218.284 15.1742 218.284 14.3198C218.284 13.568 218.432 12.9585 218.728 12.4914C219.024 12.0186 219.42 11.6484 219.916 11.3807C220.411 11.113 220.958 10.9136 221.556 10.7826C222.16 10.6459 222.766 10.5377 223.376 10.4579C224.173 10.3554 224.82 10.2785 225.315 10.2272C225.817 10.1703 226.181 10.0763 226.409 9.94528C226.643 9.81427 226.759 9.58643 226.759 9.26176V9.1934C226.759 8.35039 226.529 7.69535 226.067 7.22827C225.612 6.7612 224.92 6.52766 223.991 6.52766C223.028 6.52766 222.274 6.73841 221.727 7.15992C221.18 7.58142 220.796 8.03141 220.573 8.50988L218.66 7.82635C219.001 7.02891 219.457 6.40804 220.027 5.96375C220.602 5.51376 221.228 5.20048 221.906 5.0239C222.59 4.84163 223.262 4.75049 223.923 4.75049C224.344 4.75049 224.828 4.80176 225.375 4.90429C225.928 5.00112 226.46 5.20333 226.973 5.51091C227.491 5.8185 227.921 6.28273 228.263 6.9036C228.605 7.52446 228.776 8.35609 228.776 9.39846V18.045H226.759V16.2679H226.657C226.52 16.5527 226.292 16.8574 225.973 17.1821C225.654 17.5068 225.23 17.783 224.7 18.0109C224.17 18.2387 223.524 18.3526 222.761 18.3526ZM223.068 16.5413C223.866 16.5413 224.538 16.3846 225.085 16.0714C225.637 15.7581 226.053 15.3537 226.332 14.8581C226.617 14.3626 226.759 13.8414 226.759 13.2945V11.449C226.674 11.5516 226.486 11.6455 226.195 11.731C225.911 11.8107 225.58 11.8819 225.204 11.9446C224.834 12.0015 224.472 12.0528 224.119 12.0984C223.772 12.1383 223.49 12.1724 223.273 12.2009C222.749 12.2693 222.259 12.3803 221.804 12.5341C221.354 12.6822 220.989 12.9072 220.71 13.2091C220.437 13.5053 220.3 13.9097 220.3 14.4224C220.3 15.123 220.559 15.6527 221.078 16.0116C221.602 16.3647 222.265 16.5413 223.068 16.5413ZM237.753 23.2398C236.779 23.2398 235.942 23.1145 235.241 22.8639C234.541 22.619 233.957 22.2943 233.49 21.8899C233.029 21.4911 232.661 21.0639 232.388 20.6083L233.994 19.4804C234.176 19.7197 234.407 19.9931 234.686 20.3007C234.965 20.614 235.347 20.8845 235.831 21.1124C236.321 21.3459 236.962 21.4627 237.753 21.4627C238.813 21.4627 239.687 21.2063 240.376 20.6937C241.066 20.1811 241.41 19.3779 241.41 18.2843V15.6185H241.239C241.091 15.8578 240.881 16.154 240.607 16.5071C240.339 16.8546 239.952 17.165 239.445 17.4384C238.944 17.7061 238.266 17.84 237.412 17.84C236.352 17.84 235.401 17.5894 234.558 17.0881C233.721 16.5869 233.057 15.8578 232.567 14.9008C232.083 13.9439 231.841 12.7819 231.841 11.4149C231.841 10.0706 232.077 8.90006 232.55 7.90325C233.023 6.90075 233.681 6.12609 234.524 5.57927C235.367 5.02675 236.341 4.75049 237.446 4.75049C238.3 4.75049 238.978 4.8929 239.479 5.1777C239.986 5.4568 240.374 5.77578 240.641 6.13463C240.915 6.48779 241.125 6.77828 241.274 7.00612H241.479V4.92138H243.427V18.421C243.427 19.5488 243.17 20.4659 242.658 21.1722C242.151 21.8842 241.467 22.4054 240.607 22.7357C239.753 23.0718 238.801 23.2398 237.753 23.2398ZM237.685 16.0286C238.494 16.0286 239.177 15.8435 239.736 15.4733C240.294 15.103 240.718 14.5705 241.009 13.8755C241.299 13.1806 241.444 12.349 241.444 11.3807C241.444 10.4351 241.302 9.60067 241.017 8.87727C240.732 8.15388 240.311 7.58712 239.753 7.17701C239.194 6.76689 238.505 6.56183 237.685 6.56183C236.831 6.56183 236.119 6.77828 235.549 7.21118C234.985 7.64408 234.561 8.22508 234.276 8.95417C233.997 9.68326 233.857 10.4921 233.857 11.3807C233.857 12.292 234 13.098 234.285 13.7986C234.575 14.4936 235.002 15.0404 235.566 15.4391C236.136 15.8321 236.842 16.0286 237.685 16.0286ZM252.449 18.3185C251.264 18.3185 250.225 18.0365 249.331 17.4726C248.442 16.9087 247.747 16.1198 247.246 15.1059C246.75 14.092 246.503 12.9072 246.503 11.5516C246.503 10.1845 246.75 8.99119 247.246 7.9716C247.747 6.95201 248.442 6.16026 249.331 5.59636C250.225 5.03245 251.264 4.75049 252.449 4.75049C253.634 4.75049 254.671 5.03245 255.559 5.59636C256.453 6.16026 257.148 6.95201 257.644 7.9716C258.145 8.99119 258.396 10.1845 258.396 11.5516C258.396 12.9072 258.145 14.092 257.644 15.1059C257.148 16.1198 256.453 16.9087 255.559 17.4726C254.671 18.0365 253.634 18.3185 252.449 18.3185ZM252.449 16.5071C253.349 16.5071 254.09 16.2764 254.671 15.815C255.252 15.3537 255.682 14.747 255.961 13.9952C256.24 13.2433 256.379 12.4288 256.379 11.5516C256.379 10.6744 256.24 9.85699 255.961 9.09942C255.682 8.34185 255.252 7.72952 254.671 7.26245C254.09 6.79537 253.349 6.56183 252.449 6.56183C251.549 6.56183 250.809 6.79537 250.228 7.26245C249.647 7.72952 249.217 8.34185 248.938 9.09942C248.658 9.85699 248.519 10.6744 248.519 11.5516C248.519 12.4288 248.658 13.2433 248.938 13.9952C249.217 14.747 249.647 15.3537 250.228 15.815C250.809 16.2764 251.549 16.5071 252.449 16.5071ZM268.514 18.045V0.546819H270.531V7.00612H270.701C270.85 6.77828 271.055 6.48779 271.317 6.13463C271.584 5.77578 271.966 5.4568 272.461 5.1777C272.963 4.8929 273.641 4.75049 274.495 4.75049C275.6 4.75049 276.574 5.02675 277.417 5.57927C278.26 6.13178 278.918 6.91499 279.391 7.92888C279.863 8.94278 280.1 10.1389 280.1 11.5174C280.1 12.9072 279.863 14.1119 279.391 15.1315C278.918 16.1454 278.263 16.9315 277.426 17.4897C276.588 18.0422 275.623 18.3185 274.529 18.3185C273.686 18.3185 273.011 18.1789 272.504 17.8998C271.997 17.615 271.607 17.2932 271.334 16.9343C271.06 16.5698 270.85 16.2679 270.701 16.0286H270.462V18.045H268.514ZM270.496 11.4832C270.496 12.4743 270.642 13.3487 270.932 14.1062C271.223 14.8581 271.647 15.4477 272.205 15.8749C272.763 16.2964 273.447 16.5071 274.256 16.5071C275.099 16.5071 275.802 16.285 276.366 15.8407C276.936 15.3907 277.363 14.7869 277.648 14.0293C277.938 13.2661 278.083 12.4174 278.083 11.4832C278.083 10.5605 277.941 9.72883 277.656 8.98835C277.377 8.24217 276.953 7.65263 276.383 7.21973C275.819 6.78113 275.11 6.56183 274.256 6.56183C273.436 6.56183 272.746 6.76974 272.188 7.18555C271.63 7.59567 271.208 8.17096 270.924 8.91145C270.639 9.64624 270.496 10.5035 270.496 11.4832ZM284.013 22.9664C283.671 22.9664 283.367 22.9379 283.099 22.881C282.831 22.8297 282.646 22.7785 282.543 22.7272L283.056 20.95C283.546 21.0753 283.979 21.1209 284.355 21.0867C284.731 21.0526 285.064 20.8845 285.354 20.5826C285.651 20.2864 285.921 19.8051 286.166 19.1387L286.542 18.1134L281.689 4.92138H283.876L287.499 15.3793H287.636L291.258 4.92138H293.446L287.875 19.9589C287.624 20.6367 287.314 21.1978 286.944 21.6421C286.573 22.0921 286.143 22.4253 285.654 22.6417C285.169 22.8582 284.623 22.9664 284.013 22.9664Z" fill="black" fill-opacity="0.65"/>
<path d="M26.2517 2.42651V0.546819H39.3754V2.42651H33.873V18.045H31.7541V2.42651H26.2517ZM48.8572 12.6794V4.92138H50.8736V18.045H48.8572V15.8236H48.7205C48.4129 16.49 47.9344 17.0568 47.285 17.5239C46.6357 17.9852 45.8155 18.2159 44.8244 18.2159C44.0041 18.2159 43.275 18.0365 42.6371 17.6777C41.9991 17.3131 41.4979 16.7663 41.1333 16.0372C40.7688 15.3024 40.5865 14.3768 40.5865 13.2604V4.92138H42.6029V13.1237C42.6029 14.0806 42.8706 14.8439 43.406 15.4135C43.9472 15.9831 44.6364 16.2679 45.4737 16.2679C45.975 16.2679 46.4848 16.1397 47.0031 15.8834C47.5271 15.6271 47.9657 15.2341 48.3189 14.7043C48.6777 14.1746 48.8572 13.4996 48.8572 12.6794ZM60.2741 4.92138V6.63019H53.4731V4.92138H60.2741ZM55.4553 1.77716H57.4717V14.2857C57.4717 14.8553 57.5543 15.2825 57.7195 15.5673C57.8904 15.8464 58.1068 16.0343 58.3688 16.1312C58.6365 16.2223 58.9185 16.2679 59.2147 16.2679C59.4368 16.2679 59.6191 16.2565 59.7615 16.2337C59.9039 16.2052 60.0178 16.1824 60.1033 16.1654L60.5134 17.9767C60.3767 18.028 60.1859 18.0792 59.9409 18.1305C59.696 18.1874 59.3856 18.2159 59.0096 18.2159C58.44 18.2159 57.8818 18.0935 57.335 17.8485C56.7939 17.6036 56.3439 17.2305 55.985 16.7293C55.6319 16.228 55.4553 15.5957 55.4553 14.8325V1.77716ZM68.4978 18.3185C67.313 18.3185 66.2735 18.0365 65.3792 17.4726C64.4906 16.9087 63.7957 16.1198 63.2945 15.1059C62.7989 14.092 62.5511 12.9072 62.5511 11.5516C62.5511 10.1845 62.7989 8.99119 63.2945 7.9716C63.7957 6.95201 64.4906 6.16026 65.3792 5.59636C66.2735 5.03245 67.313 4.75049 68.4978 4.75049C69.6826 4.75049 70.7193 5.03245 71.6078 5.59636C72.5021 6.16026 73.197 6.95201 73.6926 7.9716C74.1938 8.99119 74.4445 10.1845 74.4445 11.5516C74.4445 12.9072 74.1938 14.092 73.6926 15.1059C73.197 16.1198 72.5021 16.9087 71.6078 17.4726C70.7193 18.0365 69.6826 18.3185 68.4978 18.3185ZM68.4978 16.5071C69.3978 16.5071 70.1383 16.2764 70.7193 15.815C71.3003 15.3537 71.7303 14.747 72.0094 13.9952C72.2885 13.2433 72.4281 12.4288 72.4281 11.5516C72.4281 10.6744 72.2885 9.85699 72.0094 9.09942C71.7303 8.34185 71.3003 7.72952 70.7193 7.26245C70.1383 6.79537 69.3978 6.56183 68.4978 6.56183C67.5978 6.56183 66.8573 6.79537 66.2763 7.26245C65.6954 7.72952 65.2653 8.34185 64.9862 9.09942C64.7071 9.85699 64.5675 10.6744 64.5675 11.5516C64.5675 12.4288 64.7071 13.2433 64.9862 13.9952C65.2653 14.747 65.6954 15.3537 66.2763 15.815C66.8573 16.2764 67.5978 16.5071 68.4978 16.5071ZM77.5225 18.045V4.92138H79.4705V6.9036H79.6072C79.8464 6.25425 80.2793 5.72736 80.9059 5.32295C81.5325 4.91853 82.2388 4.71632 83.0248 4.71632C83.1729 4.71632 83.358 4.71917 83.5802 4.72486C83.8023 4.73056 83.9704 4.7391 84.0843 4.75049V6.80107C84.0159 6.78398 83.8593 6.75835 83.6144 6.72417C83.3751 6.6843 83.1217 6.66436 82.854 6.66436C82.216 6.66436 81.6464 6.79822 81.1451 7.06593C80.6496 7.32795 80.2566 7.6925 79.9661 8.15957C79.6813 8.62095 79.5389 9.14783 79.5389 9.74022V18.045H77.5225ZM86.4745 18.045V4.92138H88.4909V18.045H86.4745ZM87.4998 2.7341C87.1068 2.7341 86.7678 2.60024 86.483 2.33253C86.2039 2.06481 86.0644 1.74299 86.0644 1.36705C86.0644 0.991111 86.2039 0.669284 86.483 0.40157C86.7678 0.133857 87.1068 0 87.4998 0C87.8928 0 88.2289 0.133857 88.508 0.40157C88.7928 0.669284 88.9352 0.991111 88.9352 1.36705C88.9352 1.74299 88.7928 2.06481 88.508 2.33253C88.2289 2.60024 87.8928 2.7341 87.4998 2.7341ZM96.046 18.3526C95.2144 18.3526 94.4596 18.196 93.7818 17.8827C93.104 17.5637 92.5657 17.1052 92.167 16.5071C91.7682 15.9033 91.5689 15.1742 91.5689 14.3198C91.5689 13.568 91.717 12.9585 92.0132 12.4914C92.3094 12.0186 92.7052 11.6484 93.2008 11.3807C93.6964 11.113 94.2432 10.9136 94.8413 10.7826C95.445 10.6459 96.0517 10.5377 96.6611 10.4579C97.4586 10.3554 98.1051 10.2785 98.6006 10.2272C99.1019 10.1703 99.4664 10.0763 99.6943 9.94528C99.9278 9.81427 100.045 9.58643 100.045 9.26176V9.1934C100.045 8.35039 99.8139 7.69535 99.3525 7.22827C98.8968 6.7612 98.2048 6.52766 97.2763 6.52766C96.3137 6.52766 95.559 6.73841 95.0121 7.15992C94.4653 7.58142 94.0808 8.03141 93.8587 8.50988L91.9448 7.82635C92.2866 7.02891 92.7423 6.40804 93.3119 5.96375C93.8872 5.51376 94.5137 5.20048 95.1916 5.0239C95.8751 4.84163 96.5472 4.75049 97.208 4.75049C97.6295 4.75049 98.1136 4.80176 98.6605 4.90429C99.213 5.00112 99.7455 5.20333 100.258 5.51091C100.777 5.8185 101.207 6.28273 101.548 6.9036C101.89 7.52446 102.061 8.35609 102.061 9.39846V18.045H100.045V16.2679H99.9421C99.8054 16.5527 99.5775 16.8574 99.2585 17.1821C98.9396 17.5068 98.5152 17.783 97.9855 18.0109C97.4557 18.2387 96.8092 18.3526 96.046 18.3526ZM96.3536 16.5413C97.151 16.5413 97.8231 16.3846 98.37 16.0714C98.9225 15.7581 99.3383 15.3537 99.6174 14.8581C99.9022 14.3626 100.045 13.8414 100.045 13.2945V11.449C99.9591 11.5516 99.7712 11.6455 99.4807 11.731C99.1959 11.8107 98.8655 11.8819 98.4896 11.9446C98.1193 12.0015 97.7576 12.0528 97.4045 12.0984C97.057 12.1383 96.7751 12.1724 96.5586 12.2009C96.0346 12.2693 95.5447 12.3803 95.089 12.5341C94.6391 12.6822 94.2745 12.9072 93.9954 13.2091C93.722 13.5053 93.5853 13.9097 93.5853 14.4224C93.5853 15.123 93.8445 15.6527 94.3628 16.0116C94.8868 16.3647 95.5504 16.5413 96.3536 16.5413ZM107.758 0.546819V18.045H105.741V0.546819H107.758Z" fill="#0B9610"/>
<path d="M308.581 4.92138V6.63019H301.78V4.92138H308.581ZM303.763 1.77716H305.779V14.2857C305.779 14.8553 305.862 15.2825 306.027 15.5673C306.198 15.8464 306.414 16.0343 306.676 16.1312C306.944 16.2223 307.226 16.2679 307.522 16.2679C307.744 16.2679 307.926 16.2565 308.069 16.2337C308.211 16.2052 308.325 16.1824 308.411 16.1654L308.821 17.9767C308.684 18.028 308.493 18.0792 308.248 18.1305C308.003 18.1874 307.693 18.2159 307.317 18.2159C306.747 18.2159 306.189 18.0935 305.642 17.8485C305.101 17.6036 304.651 17.2305 304.292 16.7293C303.939 16.228 303.763 15.5957 303.763 14.8325V1.77716ZM316.805 18.3185C315.62 18.3185 314.581 18.0365 313.687 17.4726C312.798 16.9087 312.103 16.1198 311.602 15.1059C311.106 14.092 310.858 12.9072 310.858 11.5516C310.858 10.1845 311.106 8.99119 311.602 7.9716C312.103 6.95201 312.798 6.16026 313.687 5.59636C314.581 5.03245 315.62 4.75049 316.805 4.75049C317.99 4.75049 319.027 5.03245 319.915 5.59636C320.809 6.16026 321.504 6.95201 322 7.9716C322.501 8.99119 322.752 10.1845 322.752 11.5516C322.752 12.9072 322.501 14.092 322 15.1059C321.504 16.1198 320.809 16.9087 319.915 17.4726C319.027 18.0365 317.99 18.3185 316.805 18.3185ZM316.805 16.5071C317.705 16.5071 318.446 16.2764 319.027 15.815C319.608 15.3537 320.038 14.747 320.317 13.9952C320.596 13.2433 320.735 12.4288 320.735 11.5516C320.735 10.6744 320.596 9.85699 320.317 9.09942C320.038 8.34185 319.608 7.72952 319.027 7.26245C318.446 6.79537 317.705 6.56183 316.805 6.56183C315.905 6.56183 315.165 6.79537 314.584 7.26245C314.003 7.72952 313.573 8.34185 313.294 9.09942C313.014 9.85699 312.875 10.6744 312.875 11.5516C312.875 12.4288 313.014 13.2433 313.294 13.9952C313.573 14.747 314.003 15.3537 314.584 15.815C315.165 16.2764 315.905 16.5071 316.805 16.5071ZM325.83 4.92138H327.846V19.002C327.846 19.8108 327.707 20.5114 327.428 21.1038C327.154 21.6962 326.738 22.1547 326.18 22.4794C325.628 22.8041 324.93 22.9664 324.087 22.9664C324.018 22.9664 323.95 22.9664 323.882 22.9664C323.813 22.9664 323.745 22.9664 323.677 22.9664V21.0867C323.745 21.0867 323.808 21.0867 323.865 21.0867C323.922 21.0867 323.984 21.0867 324.053 21.0867C324.668 21.0867 325.118 20.9045 325.403 20.5399C325.687 20.1811 325.83 19.6684 325.83 19.002V4.92138ZM326.821 2.7341C326.428 2.7341 326.089 2.60024 325.804 2.33253C325.525 2.06481 325.386 1.74299 325.386 1.36705C325.386 0.991111 325.525 0.669284 325.804 0.40157C326.089 0.133857 326.428 0 326.821 0C327.214 0 327.55 0.133857 327.829 0.40157C328.114 0.669284 328.256 0.991111 328.256 1.36705C328.256 1.74299 328.114 2.06481 327.829 2.33253C327.55 2.60024 327.214 2.7341 326.821 2.7341ZM331.539 18.045V4.92138H333.556V18.045H331.539ZM332.565 2.7341C332.172 2.7341 331.833 2.60024 331.548 2.33253C331.269 2.06481 331.129 1.74299 331.129 1.36705C331.129 0.991111 331.269 0.669284 331.548 0.40157C331.833 0.133857 332.172 0 332.565 0C332.958 0 333.294 0.133857 333.573 0.40157C333.858 0.669284 334 0.991111 334 1.36705C334 1.74299 333.858 2.06481 333.573 2.33253C333.294 2.60024 332.958 2.7341 332.565 2.7341Z" fill="black"/>
</svg>
