<svg width="381" height="24" viewBox="0 0 381 24" fill="none" xmlns="http://www.w3.org/2000/svg">
<path d="M2.11828 0.546625V18.0386H0.000111341V0.546625H2.11828ZM8.10767 10.1467V18.0386H6.09199V4.91963H8.03934V6.96947H8.21016C8.51764 6.30327 8.98455 5.76803 9.61089 5.36376C10.2372 4.95379 11.0458 4.74881 12.0365 4.74881C12.9248 4.74881 13.702 4.93101 14.3682 5.29543C15.0344 5.65415 15.5526 6.20078 15.9227 6.93531C16.2928 7.66414 16.4779 8.58657 16.4779 9.7026V18.0386H14.4622V9.83925C14.4622 8.80864 14.1946 8.00578 13.6593 7.43069C13.1241 6.8499 12.3896 6.5595 11.4558 6.5595C10.8123 6.5595 10.2372 6.699 9.73047 6.97801C9.22939 7.25702 8.83366 7.66414 8.54326 8.19938C8.25287 8.73461 8.10767 9.38373 8.10767 10.1467ZM125.692 8.35312V10.2321H118.039V8.35312H125.692ZM141.435 18.2778C140.433 18.2778 139.53 18.0785 138.728 17.6799C137.925 17.2813 137.281 16.7347 136.797 16.04C136.313 15.3454 136.049 14.5539 136.003 13.6656H138.053C138.133 14.4571 138.491 15.1119 139.129 15.6301C139.772 16.1425 140.541 16.3988 141.435 16.3988C142.153 16.3988 142.79 16.2308 143.348 15.8948C143.912 15.5589 144.353 15.0977 144.672 14.5112C144.997 13.919 145.159 13.25 145.159 12.5041C145.159 11.7411 144.991 11.0606 144.655 10.4627C144.325 9.85918 143.869 9.38373 143.289 9.0364C142.708 8.68906 142.044 8.51255 141.298 8.50685C140.763 8.50116 140.214 8.58372 139.65 8.75454C139.086 8.91967 138.622 9.13319 138.258 9.39512L136.276 9.15597L137.335 0.546625H146.423V2.42565H139.112L138.497 7.58442H138.599C138.958 7.29972 139.408 7.06342 139.949 6.87552C140.49 6.68762 141.054 6.59367 141.64 6.59367C142.711 6.59367 143.664 6.8499 144.501 7.36236C145.344 7.86912 146.005 8.56379 146.483 9.44637C146.967 10.3289 147.209 11.3368 147.209 12.4699C147.209 13.5859 146.958 14.5824 146.457 15.4592C145.962 16.3304 145.279 17.0194 144.407 17.5262C143.536 18.0272 142.545 18.2778 141.435 18.2778ZM160.373 18.0386L156.375 4.91963H158.494L161.329 14.9639H161.466L164.267 4.91963H166.42L169.187 14.9297H169.324L172.159 4.91963H174.277L170.28 18.0386H168.299L165.429 7.96023H165.224L162.354 18.0386H160.373ZM181.996 18.3119C180.732 18.3119 179.642 18.0329 178.725 17.4749C177.814 16.9112 177.111 16.1254 176.616 15.1176C176.126 14.1041 175.881 12.9254 175.881 11.5816C175.881 10.2378 176.126 9.05348 176.616 8.02856C177.111 6.99794 177.8 6.19508 178.682 5.61999C179.571 5.0392 180.607 4.74881 181.791 4.74881C182.475 4.74881 183.149 4.86269 183.816 5.09045C184.482 5.31821 185.088 5.68832 185.635 6.20078C186.181 6.70755 186.617 7.37944 186.942 8.21646C187.266 9.05348 187.428 10.0841 187.428 11.3083V12.1624H177.316V10.42H185.379C185.379 9.67982 185.231 9.01931 184.935 8.43853C184.644 7.85774 184.228 7.39937 183.688 7.06342C183.152 6.72747 182.52 6.5595 181.791 6.5595C180.989 6.5595 180.294 6.75879 179.707 7.15737C179.127 7.55026 178.68 8.06272 178.366 8.69476C178.053 9.32679 177.897 10.0044 177.897 10.7275V11.8891C177.897 12.8799 178.068 13.7197 178.409 14.4087C178.757 15.092 179.238 15.613 179.853 15.9717C180.468 16.3247 181.182 16.5012 181.996 16.5012C182.526 16.5012 183.004 16.4272 183.431 16.2792C183.864 16.1254 184.237 15.8977 184.55 15.5959C184.863 15.2884 185.105 14.9069 185.276 14.4514L187.223 14.998C187.019 15.6585 186.674 16.2393 186.19 16.7404C185.706 17.2358 185.108 17.623 184.396 17.902C183.685 18.1753 182.885 18.3119 181.996 18.3119ZM195.995 18.3119C194.731 18.3119 193.641 18.0329 192.724 17.4749C191.813 16.9112 191.11 16.1254 190.614 15.1176C190.125 14.1041 189.88 12.9254 189.88 11.5816C189.88 10.2378 190.125 9.05348 190.614 8.02856C191.11 6.99794 191.799 6.19508 192.681 5.61999C193.569 5.0392 194.606 4.74881 195.79 4.74881C196.473 4.74881 197.148 4.86269 197.814 5.09045C198.481 5.31821 199.087 5.68832 199.634 6.20078C200.18 6.70755 200.616 7.37944 200.94 8.21646C201.265 9.05348 201.427 10.0841 201.427 11.3083V12.1624H191.315V10.42H199.377C199.377 9.67982 199.229 9.01931 198.933 8.43853C198.643 7.85774 198.227 7.39937 197.686 7.06342C197.151 6.72747 196.519 6.5595 195.79 6.5595C194.987 6.5595 194.293 6.75879 193.706 7.15737C193.125 7.55026 192.678 8.06272 192.365 8.69476C192.052 9.32679 191.895 10.0044 191.895 10.7275V11.8891C191.895 12.8799 192.066 13.7197 192.408 14.4087C192.755 15.092 193.236 15.613 193.851 15.9717C194.466 16.3247 195.181 16.5012 195.995 16.5012C196.525 16.5012 197.003 16.4272 197.43 16.2792C197.863 16.1254 198.236 15.8977 198.549 15.5959C198.862 15.2884 199.104 14.9069 199.275 14.4514L201.222 14.998C201.017 15.6585 200.673 16.2393 200.189 16.7404C199.705 17.2358 199.107 17.623 198.395 17.902C197.683 18.1753 196.883 18.3119 195.995 18.3119ZM206.372 13.2557L206.338 10.7617H206.748L212.488 4.91963H214.982L208.866 11.1033H208.696L206.372 13.2557ZM204.493 18.0386V0.546625H206.509V18.0386H204.493ZM212.829 18.0386L207.705 11.5475L209.14 10.1467L215.392 18.0386H212.829ZM226.869 7.85774L225.058 8.3702C224.944 8.06841 224.776 7.77517 224.554 7.49047C224.338 7.20008 224.042 6.96093 223.666 6.77303C223.29 6.58512 222.809 6.49117 222.222 6.49117C221.42 6.49117 220.751 6.67623 220.215 7.04634C219.686 7.41076 219.421 7.87482 219.421 8.43853C219.421 8.9396 219.603 9.33533 219.968 9.62573C220.332 9.91612 220.901 10.1581 221.676 10.3517L223.623 10.83C224.796 11.1147 225.67 11.5503 226.245 12.1368C226.82 12.7176 227.108 13.4663 227.108 14.3831C227.108 15.1347 226.892 15.8066 226.459 16.3988C226.032 16.9909 225.434 17.4578 224.665 17.7995C223.896 18.1411 223.003 18.3119 221.983 18.3119C220.645 18.3119 219.538 18.0215 218.661 17.4408C217.784 16.86 217.229 16.0116 216.995 14.8955L218.909 14.4172C219.091 15.1233 219.435 15.6528 219.942 16.0059C220.454 16.3589 221.124 16.5354 221.949 16.5354C222.889 16.5354 223.635 16.3361 224.187 15.9375C224.745 15.5333 225.024 15.0493 225.024 14.4856C225.024 14.03 224.864 13.6485 224.546 13.3411C224.227 13.0279 223.737 12.7944 223.077 12.6407L220.89 12.1282C219.689 11.8435 218.806 11.4023 218.242 10.8044C217.684 10.2008 217.405 9.44637 217.405 8.54102C217.405 7.8008 217.613 7.14598 218.029 6.57658C218.45 6.00718 219.022 5.5602 219.746 5.23564C220.474 4.91109 221.3 4.74881 222.222 4.74881C223.521 4.74881 224.54 5.03351 225.28 5.60291C226.026 6.17231 226.556 6.92392 226.869 7.85774ZM240.767 18.3461C239.936 18.3461 239.181 18.1895 238.504 17.8764C237.826 17.5575 237.288 17.0991 236.89 16.5012C236.491 15.8977 236.292 15.1688 236.292 14.3147C236.292 13.5631 236.44 12.9539 236.736 12.487C237.032 12.0144 237.428 11.6443 237.923 11.3766C238.418 11.109 238.965 10.9097 239.563 10.7788C240.166 10.6421 240.773 10.5339 241.382 10.4542C242.179 10.3517 242.826 10.2748 243.321 10.2236C243.822 10.1667 244.186 10.0727 244.414 9.94174C244.648 9.81078 244.764 9.58302 244.764 9.25846V9.19013C244.764 8.34742 244.534 7.69261 244.073 7.2257C243.617 6.75879 242.925 6.52534 241.997 6.52534C241.035 6.52534 240.28 6.73602 239.734 7.15737C239.187 7.57873 238.803 8.02856 238.581 8.50685L236.667 7.82357C237.009 7.02641 237.465 6.40576 238.034 5.96163C238.609 5.5118 239.235 5.19863 239.913 5.02212C240.596 4.83991 241.268 4.74881 241.929 4.74881C242.35 4.74881 242.834 4.80005 243.381 4.90254C243.933 4.99934 244.465 5.20148 244.978 5.50896C245.496 5.81643 245.926 6.2805 246.268 6.90114C246.609 7.52179 246.78 8.35312 246.78 9.39512V18.0386H244.764V16.2621H244.662C244.525 16.5468 244.297 16.8514 243.979 17.176C243.66 17.5005 243.235 17.7767 242.706 18.0045C242.176 18.2322 241.53 18.3461 240.767 18.3461ZM241.075 16.5354C241.872 16.5354 242.544 16.3788 243.09 16.0657C243.643 15.7525 244.058 15.3482 244.337 14.8528C244.622 14.3575 244.764 13.8364 244.764 13.2898V11.445C244.679 11.5475 244.491 11.6414 244.201 11.7268C243.916 11.8065 243.586 11.8777 243.21 11.9403C242.84 11.9973 242.478 12.0485 242.125 12.0941C241.778 12.1339 241.496 12.1681 241.28 12.1966C240.756 12.2649 240.266 12.3759 239.811 12.5297C239.361 12.6777 238.996 12.9026 238.717 13.2044C238.444 13.5005 238.307 13.9048 238.307 14.4172C238.307 15.1176 238.566 15.6471 239.085 16.0059C239.608 16.3589 240.272 16.5354 241.075 16.5354ZM255.754 23.2316C254.781 23.2316 253.944 23.1063 253.243 22.8558C252.543 22.6109 251.959 22.2864 251.493 21.8821C251.031 21.4835 250.664 21.0565 250.391 20.6009L251.996 19.4735C252.179 19.7127 252.409 19.986 252.688 20.2935C252.967 20.6066 253.349 20.8771 253.833 21.1049C254.322 21.3383 254.963 21.455 255.754 21.455C256.814 21.455 257.688 21.1988 258.377 20.6863C259.066 20.1739 259.41 19.371 259.41 18.2778V15.613H259.239C259.091 15.8521 258.881 16.1482 258.607 16.5012C258.34 16.8486 257.952 17.1589 257.446 17.4322C256.945 17.6998 256.267 17.8336 255.413 17.8336C254.354 17.8336 253.403 17.5831 252.56 17.082C251.723 16.581 251.06 15.8521 250.57 14.8955C250.086 13.9389 249.844 12.7774 249.844 11.4108C249.844 10.067 250.08 8.89689 250.553 7.90044C251.026 6.8983 251.683 6.12391 252.526 5.57728C253.369 5.02497 254.342 4.74881 255.447 4.74881C256.301 4.74881 256.979 4.89116 257.48 5.17586C257.987 5.45486 258.374 5.77373 258.641 6.13245C258.915 6.48548 259.125 6.77587 259.273 7.00363H259.478V4.91963H261.426V18.4144C261.426 19.5418 261.169 20.4586 260.657 21.1646C260.15 21.8764 259.467 22.3974 258.607 22.7276C257.753 23.0636 256.802 23.2316 255.754 23.2316ZM255.686 16.0229C256.495 16.0229 257.178 15.8379 257.736 15.4678C258.294 15.0977 258.718 14.5653 259.009 13.8706C259.299 13.1759 259.444 12.3446 259.444 11.3766C259.444 10.4314 259.302 9.59726 259.017 8.87412C258.732 8.15098 258.311 7.58442 257.753 7.17445C257.195 6.76449 256.506 6.5595 255.686 6.5595C254.832 6.5595 254.12 6.77587 253.551 7.20862C252.987 7.64136 252.563 8.22215 252.278 8.95099C251.999 9.67982 251.86 10.4884 251.86 11.3766C251.86 12.2877 252.002 13.0934 252.287 13.7937C252.577 14.4884 253.004 15.035 253.568 15.4336C254.137 15.8265 254.843 16.0229 255.686 16.0229ZM270.445 18.3119C269.261 18.3119 268.222 18.0301 267.328 17.4664C266.439 16.9027 265.745 16.1141 265.244 15.1005C264.748 14.087 264.5 12.9026 264.5 11.5475C264.5 10.1809 264.748 8.988 265.244 7.96877C265.745 6.94954 266.439 6.15807 267.328 5.59437C268.222 5.03066 269.261 4.74881 270.445 4.74881C271.629 4.74881 272.666 5.03066 273.554 5.59437C274.448 6.15807 275.143 6.94954 275.638 7.96877C276.139 8.988 276.39 10.1809 276.39 11.5475C276.39 12.9026 276.139 14.087 275.638 15.1005C275.143 16.1141 274.448 16.9027 273.554 17.4664C272.666 18.0301 271.629 18.3119 270.445 18.3119ZM270.445 16.5012C271.345 16.5012 272.085 16.2706 272.666 15.8094C273.246 15.3482 273.676 14.7418 273.955 13.9902C274.234 13.2386 274.374 12.4243 274.374 11.5475C274.374 10.6706 274.234 9.85349 273.955 9.09618C273.676 8.33888 273.246 7.72677 272.666 7.25986C272.085 6.79296 271.345 6.5595 270.445 6.5595C269.545 6.5595 268.805 6.79296 268.224 7.25986C267.644 7.72677 267.214 8.33888 266.935 9.09618C266.656 9.85349 266.516 10.6706 266.516 11.5475C266.516 12.4243 266.656 13.2386 266.935 13.9902C267.214 14.7418 267.644 15.3482 268.224 15.8094C268.805 16.2706 269.545 16.5012 270.445 16.5012ZM286.504 18.0386V0.546625H288.52V7.00363H288.691C288.839 6.77587 289.044 6.48548 289.306 6.13245C289.573 5.77373 289.955 5.45486 290.45 5.17586C290.951 4.89116 291.629 4.74881 292.483 4.74881C293.588 4.74881 294.561 5.02497 295.404 5.57728C296.247 6.1296 296.904 6.91253 297.377 7.92606C297.85 8.9396 298.086 10.1353 298.086 11.5133C298.086 12.9026 297.85 14.1069 297.377 15.1261C296.904 16.1397 296.25 16.9255 295.413 17.4835C294.576 18.0358 293.61 18.3119 292.517 18.3119C291.674 18.3119 291 18.1724 290.493 17.8934C289.986 17.6087 289.596 17.287 289.323 16.9283C289.05 16.5639 288.839 16.2621 288.691 16.0229H288.452V18.0386H286.504ZM288.486 11.4791C288.486 12.4699 288.631 13.3439 288.921 14.1012C289.212 14.8528 289.636 15.4422 290.194 15.8692C290.752 16.2906 291.435 16.5012 292.244 16.5012C293.087 16.5012 293.79 16.2792 294.353 15.835C294.923 15.3852 295.35 14.7817 295.635 14.0244C295.925 13.2614 296.07 12.4129 296.07 11.4791C296.07 10.5567 295.928 9.72537 295.643 8.98515C295.364 8.23924 294.94 7.6499 294.371 7.21716C293.807 6.77872 293.098 6.5595 292.244 6.5595C291.424 6.5595 290.735 6.76733 290.177 7.183C289.619 7.59296 289.198 8.16806 288.913 8.90828C288.628 9.64281 288.486 10.4998 288.486 11.4791ZM301.998 22.9583C301.656 22.9583 301.351 22.9298 301.084 22.8728C300.816 22.8216 300.631 22.7704 300.529 22.7191L301.041 20.9426C301.531 21.0678 301.964 21.1134 302.339 21.0792C302.715 21.0451 303.048 20.8771 303.339 20.5753C303.635 20.2792 303.905 19.7981 304.15 19.1319L304.526 18.107L299.675 4.91963H301.861L305.482 15.3738H305.619L309.24 4.91963H311.427L305.858 19.9518C305.608 20.6294 305.297 21.1903 304.927 21.6344C304.557 22.0842 304.127 22.4173 303.638 22.6337C303.154 22.8501 302.607 22.9583 301.998 22.9583Z" fill="black" fill-opacity="0.65"/>
<path d="M26.2424 2.42565V0.546625H39.3614V2.42565H33.861V18.0386H31.7428V2.42565H26.2424ZM48.8398 12.6749V4.91963H50.8555V18.0386H48.8398V15.818H48.7031C48.3957 16.4842 47.9174 17.0507 47.2682 17.5176C46.6191 17.9788 45.7992 18.2095 44.8084 18.2095C43.9885 18.2095 43.2597 18.0301 42.6219 17.6714C41.9842 17.3069 41.4831 16.7603 41.1187 16.0315C40.7543 15.297 40.5721 14.3717 40.5721 13.2557V4.91963H42.5878V13.119C42.5878 14.0756 42.8554 14.8386 43.3906 15.408C43.9315 15.9774 44.6205 16.2621 45.4575 16.2621C45.9586 16.2621 46.4682 16.134 46.9864 15.8778C47.5102 15.6215 47.9487 15.2286 48.3017 14.6991C48.6604 14.1695 48.8398 13.4948 48.8398 12.6749ZM60.2527 4.91963V6.62783H53.4541V4.91963H60.2527ZM55.4356 1.77653H57.4513V14.2806C57.4513 14.85 57.5338 15.277 57.699 15.5617C57.8698 15.8407 58.0862 16.0286 58.3481 16.1254C58.6157 16.2165 58.8975 16.2621 59.1936 16.2621C59.4157 16.2621 59.5979 16.2507 59.7403 16.2279C59.8826 16.1995 59.9965 16.1767 60.0819 16.1596L60.4919 17.9703C60.3552 18.0215 60.1645 18.0728 59.9196 18.124C59.6748 18.181 59.3645 18.2095 58.9887 18.2095C58.4193 18.2095 57.8612 18.087 57.3146 17.8422C56.7737 17.5973 56.3239 17.2244 55.9651 16.7233C55.6121 16.2222 55.4356 15.5902 55.4356 14.8272V1.77653ZM68.4735 18.3119C67.2891 18.3119 66.2499 18.0301 65.356 17.4664C64.4677 16.9027 63.773 16.1141 63.272 15.1005C62.7766 14.087 62.5289 12.9026 62.5289 11.5475C62.5289 10.1809 62.7766 8.988 63.272 7.96877C63.773 6.94954 64.4677 6.15807 65.356 5.59437C66.2499 5.03066 67.2891 4.74881 68.4735 4.74881C69.6578 4.74881 70.6941 5.03066 71.5824 5.59437C72.4763 6.15807 73.171 6.94954 73.6664 7.96877C74.1675 8.988 74.418 10.1809 74.418 11.5475C74.418 12.9026 74.1675 14.087 73.6664 15.1005C73.171 16.1141 72.4763 16.9027 71.5824 17.4664C70.6941 18.0301 69.6578 18.3119 68.4735 18.3119ZM68.4735 16.5012C69.3731 16.5012 70.1133 16.2706 70.6941 15.8094C71.2749 15.3482 71.7048 14.7418 71.9838 13.9902C72.2628 13.2386 72.4023 12.4243 72.4023 11.5475C72.4023 10.6706 72.2628 9.85349 71.9838 9.09618C71.7048 8.33888 71.2749 7.72677 70.6941 7.25986C70.1133 6.79296 69.3731 6.5595 68.4735 6.5595C67.5738 6.5595 66.8336 6.79296 66.2528 7.25986C65.672 7.72677 65.2421 8.33888 64.9631 9.09618C64.6841 9.85349 64.5446 10.6706 64.5446 11.5475C64.5446 12.4243 64.6841 13.2386 64.9631 13.9902C65.2421 14.7418 65.672 15.3482 66.2528 15.8094C66.8336 16.2706 67.5738 16.5012 68.4735 16.5012ZM77.4949 18.0386V4.91963H79.4423V6.90114H79.5789C79.8181 6.25203 80.2508 5.72533 80.8771 5.32105C81.5035 4.91678 82.2095 4.71464 82.9953 4.71464C83.1434 4.71464 83.3284 4.71749 83.5505 4.72318C83.7726 4.72888 83.9405 4.73742 84.0544 4.74881V6.79865C83.9861 6.78157 83.8295 6.75594 83.5846 6.72178C83.3455 6.68192 83.0921 6.66199 82.8245 6.66199C82.1868 6.66199 81.6174 6.7958 81.1163 7.06342C80.6209 7.32535 80.228 7.68976 79.9376 8.15667C79.6529 8.61789 79.5106 9.14458 79.5106 9.73676V18.0386H77.4949ZM86.4438 18.0386V4.91963H88.4594V18.0386H86.4438ZM87.4687 2.73313C87.0758 2.73313 86.737 2.59932 86.4523 2.3317C86.1733 2.06408 86.0338 1.74237 86.0338 1.36656C86.0338 0.990758 86.1733 0.669046 86.4523 0.401427C86.737 0.133809 87.0758 0 87.4687 0C87.8616 0 88.1975 0.133809 88.4765 0.401427C88.7612 0.669046 88.9036 0.990758 88.9036 1.36656C88.9036 1.74237 88.7612 2.06408 88.4765 2.3317C88.1975 2.59932 87.8616 2.73313 87.4687 2.73313ZM96.0118 18.3461C95.1805 18.3461 94.426 18.1895 93.7485 17.8764C93.0709 17.5575 92.5328 17.0991 92.1342 16.5012C91.7356 15.8977 91.5363 15.1688 91.5363 14.3147C91.5363 13.5631 91.6844 12.9539 91.9805 12.487C92.2766 12.0144 92.6723 11.6443 93.1677 11.3766C93.663 11.109 94.2097 10.9097 94.8075 10.7788C95.4111 10.6421 96.0175 10.5339 96.6268 10.4542C97.4239 10.3517 98.0702 10.2748 98.5656 10.2236C99.0667 10.1667 99.4311 10.0727 99.6588 9.94174C99.8923 9.81078 100.009 9.58302 100.009 9.25846V9.19013C100.009 8.34742 99.7784 7.69261 99.3172 7.2257C98.8617 6.75879 98.1699 6.52534 97.2417 6.52534C96.2794 6.52534 95.525 6.73602 94.9784 7.15737C94.4317 7.57873 94.0474 8.02856 93.8253 8.50685L91.9121 7.82357C92.2538 7.02641 92.7093 6.40576 93.2787 5.96163C93.8538 5.5118 94.4801 5.19863 95.1577 5.02212C95.841 4.83991 96.5129 4.74881 97.1734 4.74881C97.5948 4.74881 98.0788 4.80005 98.6254 4.90254C99.1777 4.99934 99.7101 5.20148 100.223 5.50896C100.741 5.81643 101.171 6.2805 101.512 6.90114C101.854 7.52179 102.025 8.35312 102.025 9.39512V18.0386H100.009V16.2621H99.9065C99.7699 16.5468 99.5421 16.8514 99.2233 17.176C98.9044 17.5005 98.4802 17.7767 97.9506 18.0045C97.4211 18.2322 96.7748 18.3461 96.0118 18.3461ZM96.3193 16.5354C97.1165 16.5354 97.7884 16.3788 98.335 16.0657C98.8873 15.7525 99.303 15.3482 99.582 14.8528C99.8667 14.3575 100.009 13.8364 100.009 13.2898V11.445C99.9236 11.5475 99.7357 11.6414 99.4453 11.7268C99.1606 11.8065 98.8304 11.8777 98.4546 11.9403C98.0845 11.9973 97.7229 12.0485 97.3699 12.0941C97.0225 12.1339 96.7407 12.1681 96.5243 12.1966C96.0004 12.2649 95.5108 12.3759 95.0552 12.5297C94.6054 12.6777 94.241 12.9026 93.962 13.2044C93.6887 13.5005 93.552 13.9048 93.552 14.4172C93.552 15.1176 93.8111 15.6471 94.3292 16.0059C94.8531 16.3589 95.5165 16.5354 96.3193 16.5354ZM107.719 0.546625V18.0386H105.704V0.546625H107.719Z" fill="#0B9610"/>
<path d="M321.843 0.546625L327.036 15.2713H327.241L332.434 0.546625H334.654L328.231 18.0386H326.045L319.622 0.546625H321.843ZM339.121 10.1467V18.0386H337.106V0.546625H339.121V6.96947H339.292C339.6 6.29188 340.061 5.7538 340.676 5.35522C341.296 4.95094 342.122 4.74881 343.153 4.74881C344.047 4.74881 344.829 4.92817 345.501 5.28689C346.173 5.63992 346.694 6.1837 347.064 6.91822C347.44 7.64706 347.628 8.57518 347.628 9.7026V18.0386H345.612V9.83925C345.612 8.79725 345.342 7.99155 344.801 7.42214C344.266 6.84705 343.523 6.5595 342.572 6.5595C341.911 6.5595 341.319 6.699 340.795 6.97801C340.277 7.25702 339.867 7.66414 339.565 8.19938C339.269 8.73461 339.121 9.38373 339.121 10.1467ZM351.316 18.0386V4.91963H353.331V18.0386H351.316ZM352.341 2.73313C351.948 2.73313 351.609 2.59932 351.324 2.3317C351.045 2.06408 350.906 1.74237 350.906 1.36656C350.906 0.990758 351.045 0.669046 351.324 0.401427C351.609 0.133809 351.948 0 352.341 0C352.733 0 353.069 0.133809 353.348 0.401427C353.633 0.669046 353.775 0.990758 353.775 1.36656C353.775 1.74237 353.633 2.06408 353.348 2.3317C353.069 2.59932 352.733 2.73313 352.341 2.73313ZM359.039 10.1467V18.0386H357.023V4.91963H358.971V6.96947H359.141C359.449 6.30327 359.916 5.76803 360.542 5.36376C361.168 4.95379 361.977 4.74881 362.968 4.74881C363.856 4.74881 364.633 4.93101 365.299 5.29543C365.966 5.65415 366.484 6.20078 366.854 6.93531C367.224 7.66414 367.409 8.58657 367.409 9.7026V18.0386H365.393V9.83925C365.393 8.80864 365.126 8.00578 364.591 7.43069C364.055 6.8499 363.321 6.5595 362.387 6.5595C361.744 6.5595 361.168 6.699 360.662 6.97801C360.161 7.25702 359.765 7.66414 359.474 8.19938C359.184 8.73461 359.039 9.38373 359.039 10.1467ZM370.717 18.0386V16.5012L378.164 6.93531V6.79865H370.956V4.91963H380.761V6.52534L373.518 16.0229V16.1596H381V18.0386H370.717Z" fill="black"/>
</svg>
